<svg viewBox="0 0 74 74" xmlns="http://www.w3.org/2000/svg">
<circle cx="37" cy="37" r="37" fill="white"/>
<path d="M35.6864 0C27.1395 0.301983 18.6782 3.55355 11.9461 9.75437L29.1716 26.9798C34.5575 20.8446 37.0207 11.7109 35.6864 0ZM38.8072 0.0184217C40.1236 12.2777 37.4655 22.3245 31.3655 29.1743L37.0001 34.8083L62.0541 9.75437C55.4514 3.67269 47.1859 0.426461 38.8072 0.0184217ZM9.75439 11.9461C3.55339 18.6782 0.301984 27.1394 0 35.6864C11.7109 37.0207 20.8445 34.5574 26.98 29.1715L9.75439 11.9461ZM64.2458 11.9461L39.1918 37L44.8234 42.6316C50.6453 37.4473 58.7777 34.7498 68.6142 34.8651C70.3511 34.8854 72.142 34.9948 73.9818 35.1922C73.5737 26.8137 70.3271 18.5484 64.2456 11.9461H64.2458ZM29.1742 31.3653C22.3244 37.4652 12.2775 40.1235 0.0184218 38.8069C0.426462 47.1856 3.67287 55.4513 9.75456 62.0539L34.8084 37L29.1742 31.3653ZM67.9125 37.9542C59.0888 37.9614 52.0483 40.4144 47.0201 44.8285L64.2456 62.0539C70.4466 55.3218 73.698 46.8606 74 38.3136C71.8866 38.0726 69.8552 37.9528 67.9121 37.9543L67.9125 37.9542ZM37.0001 39.1917L11.9461 64.2456C18.5488 70.3273 26.8142 73.5737 35.193 73.9818C33.8766 61.7225 36.5347 51.6756 42.6347 44.8259L37.0001 39.1917ZM44.8286 47.0202C39.4426 53.1554 36.9794 62.2891 38.3137 74C46.8607 73.698 55.3219 70.4464 62.0541 64.2456L44.8286 47.0202Z" fill="#FF6700"/>
</svg>
